<svg viewBox="0 0 120 120" fill="none" xmlns="http://www.w3.org/2000/svg">
  <defs>
    <linearGradient id="lg" x1="0%" y1="0%" x2="100%" y2="100%">
      <stop offset="0%" stop-color="#FF6B6B"/>
      <stop offset="100%" stop-color="#CC4444"/>
    </linearGradient>
  </defs>
  <!-- Body only (no eyes, no claws) -->
  <path d="M60 10 C30 10 15 35 15 55 C15 75 30 95 45 100 L45 110 L55 110 L55 100 C55 100 60 102 65 100 L65 110 L75 110 L75 100 C90 95 105 75 105 55 C105 35 90 10 60 10Z" fill="url(#lg)"/>
  <!-- Antenna -->
  <path d="M45 15 Q35 5 30 8" stroke="#FF6B6B" stroke-width="2" stroke-linecap="round"/>
  <path d="M75 15 Q85 5 90 8" stroke="#FF6B6B" stroke-width="2" stroke-linecap="round"/>
</svg>
